<svg width="48" height="47" viewBox="0 0 48 47" fill="none" xmlns="http://www.w3.org/2000/svg">
    <path
        d="M13.097 17.7615C12.1982 18.7231 11.2567 19.7304 10.3579 20.6919C10.3151 20.7377 10.4555 20.9547 10.5013 20.9975C10.993 21.1139 11.4419 21.2762 11.9734 21.2582C12.8165 21.2741 13.6107 21.1586 14.411 21.2203C15.3884 21.276 16.4365 20.7972 17.3891 21.4302C18.3635 21.3973 19.335 21.2758 20.2696 21.3773C20.8041 21.448 21.3874 21.65 21.9617 21.5863C22.0503 21.5833 22.2304 21.6659 22.2792 21.7973C22.5111 22.0999 22.8257 22.2223 23.2228 22.1645C24.1972 22.1316 25.1717 22.0988 26.1461 22.0659C26.5005 22.0539 26.6836 22.2251 26.9126 22.4391C27.2361 22.8273 27.5416 22.6839 27.7954 22.3206C27.9238 22.1832 28.0492 21.9573 28.315 21.9483C30.5296 21.8736 32.79 21.8417 35.0475 21.7211C36.1712 22.171 37.3597 21.9092 38.4685 21.9161C39 21.8981 39.3693 22.3291 39.8978 22.2226C40.4263 22.1161 40.915 22.1439 41.4923 22.1688C41.6267 22.2086 41.8129 22.4684 42.0328 22.4166C42.6957 22.3499 43.2482 22.952 43.9051 22.7082C44.6934 22.4155 45.426 23.1003 46.2203 22.9848C46.706 22.924 47.1241 23.4864 47.142 24.0179C47.1629 24.638 46.7807 25.1387 46.2064 25.2024C45.4091 25.2293 44.5691 25.302 43.726 25.2861C42.6172 25.2792 41.5114 25.3608 40.4026 25.3539C39.7825 25.3748 39.1932 24.9956 38.4875 25.1081C37.8246 25.1749 37.1587 25.153 36.4958 25.2197C35.7872 25.2436 35.1671 25.2645 34.4584 25.2885C33.7497 25.3124 33.1296 25.3333 32.4209 25.3572C31.2235 25.3533 29.9863 25.4837 28.7371 25.2598C27.5766 25.0329 26.3881 25.2948 25.1479 25.3366C23.9077 25.3785 22.579 25.4233 21.3388 25.4652C20.7187 25.4861 20.1264 25.0183 19.4665 25.1736C19.3351 25.2224 19.1062 25.0084 18.9688 24.88C18.7887 24.7974 18.5139 24.5406 18.4283 24.6322C17.0777 25.3429 15.6852 24.8134 14.3196 25.0812C13.8796 25.1848 13.6328 24.4393 13.162 24.9429C12.8196 25.3092 12.3249 25.1042 11.9278 25.162C11.7506 25.1679 11.6222 25.3053 11.7596 25.4337C12.5867 26.2926 13.4567 27.1058 14.3267 27.919C15.5241 27.9229 15.9601 29.0168 16.7783 29.61C17.1874 29.9066 17.7557 29.6657 18.128 30.1852C18.3629 30.5764 18.769 30.7844 19.0895 31.084C19.4558 31.4264 19.8679 31.8115 20.2342 32.1539C20.7379 32.6247 20.7379 32.6247 20.1815 33.2199C20.0959 33.3115 19.9675 33.4489 19.8819 33.5404C19.5365 33.8182 18.8308 33.9307 18.5103 33.6311C18.0067 33.1603 17.512 32.9553 16.8003 32.8906C16.223 32.8657 15.6397 32.6637 15.0504 32.2845C14.6413 31.9879 14.0153 31.8317 13.4838 31.8496C13.3066 31.8556 13.2608 31.8128 13.2976 31.5898C13.3285 31.1897 13.1393 30.8413 12.6994 30.9449C12.1709 31.0514 12.0126 30.3029 11.6154 30.3607C11.0411 30.4244 10.7206 30.1248 10.5315 29.7764C10.1592 29.2569 9.41669 29.5923 8.99862 29.03C8.71792 28.596 8.22023 28.3024 7.85393 27.96C6.97107 28.0785 6.59281 27.3818 6.04336 26.8682C5.72284 26.5686 5.2003 26.8523 4.8768 26.4641C4.64487 26.1616 4.36417 25.7276 3.79285 25.8799C3.75005 25.9257 3.65847 25.8401 3.65847 25.8401C3.76594 25.0827 3.17967 24.792 2.72478 24.4526C2.22411 24.0705 2.16039 23.4961 2.3684 23.09C2.53361 22.7297 2.65602 22.4152 2.55548 22.0638C2.49474 21.5781 2.62314 21.4407 3.11185 21.4686C3.28903 21.4626 3.45723 21.1909 3.58562 21.0535C3.88521 20.733 4.23058 20.4553 4.07827 19.884C4.56699 19.9118 4.91535 19.7227 5.16915 19.3594C5.38015 19.0419 5.68272 18.8099 5.93951 18.5352C6.2391 18.2147 6.53868 17.8942 6.83827 17.5737C7.13785 17.2531 7.43744 16.9326 7.73702 16.6121C8.03661 16.2916 8.3362 15.9711 8.63578 15.6506C8.89257 15.3759 9.14936 15.1011 9.40614 14.8264C9.70573 14.5059 10.0053 14.1854 10.3049 13.8649C10.5617 13.5901 10.3755 13.3304 10.4552 13.0616C11.4784 13.1601 11.6655 12.1339 12.3622 11.7557C12.9057 12.0921 13.3495 10.7911 13.8681 11.7048C13.9139 11.7476 14.0881 11.6531 14.2195 11.6043C14.3937 11.5097 14.6535 11.3236 14.745 11.4092C15.1083 11.663 15.3433 12.0541 15.7494 12.2621C16.2013 12.513 15.8679 13.145 16.2769 13.4416C16.3685 13.5272 16.4233 13.8358 16.3775 13.793C15.6808 14.1712 15.9734 14.9595 15.5027 15.4632C14.6775 15.9788 13.9102 16.8916 13.097 17.7615ZM23.7046 23.3012C23.7016 23.2126 23.6986 23.124 23.6956 23.0354C23.5642 23.0842 23.4757 23.0872 23.3901 23.1788C23.3473 23.2246 23.3503 23.3131 23.396 23.3559C23.5304 23.3958 23.5732 23.35 23.7046 23.3012ZM24.5596 23.6714C24.5566 23.5828 24.5964 23.4485 24.6362 23.3141C24.5477 23.3171 24.4591 23.3201 24.4591 23.3201C24.3735 23.4116 24.3765 23.5002 24.3367 23.6346C24.4282 23.7202 24.5168 23.7172 24.5596 23.6714Z"
        fill="#44281D" />
</svg>