<svg width="210" height="60" viewBox="0 0 210 60" fill="none" xmlns="http://www.w3.org/2000/svg">
    <g clip-path="url(#clip0_15_396)">
        <path
            d="M143.573 51.6079C143.632 50.5232 143.339 49.6098 142.753 48.6964C142.109 47.783 141.816 46.8125 142.285 45.7278L142.343 45.4995C142.636 44.529 142.519 43.6155 141.757 42.8734C141.23 42.3025 141.054 41.6745 141.23 40.9324C141.464 39.9619 141.347 39.0485 140.762 38.1921C140.234 37.45 140.176 36.5937 140.586 35.6802C140.937 34.9381 141.172 34.0818 141.406 33.2825C141.582 32.6546 141.582 31.9695 141.347 31.3986C141.172 30.8848 141.23 30.4281 141.347 29.9714C141.464 29.4576 141.523 28.9438 141.64 28.3729C141.699 27.9733 141.582 27.6308 141.23 27.3453C140.82 27.0028 140.703 26.5461 140.762 26.0323C140.82 25.4614 140.937 24.8334 140.644 24.2625C140.586 24.1484 140.644 24.0342 140.644 23.8629C140.703 22.8353 140.469 21.8648 140.059 20.9514C139.824 20.4376 139.707 19.8667 139.766 19.2388C139.883 18.097 139.824 16.9552 139.59 15.8705C139.356 14.6717 139.004 13.4728 138.77 12.274C138.653 11.8743 138.594 11.4176 138.653 11.018C138.711 10.1617 138.828 9.30536 138.946 8.44903C139.063 7.42144 139.356 6.45093 139.824 5.48043C140.234 4.56701 140.644 3.6536 141.054 2.74018C141.172 2.39765 141.347 2.05512 141.406 1.71259C141.523 1.31297 141.523 0.856263 141.23 0.456643C140.879 -0.0571531 140.41 -0.17133 139.941 0.285378C139.59 0.627909 139.238 1.02753 138.946 1.48424C138.477 2.34056 137.891 3.1398 137.188 3.88195C136.72 4.39575 136.485 5.02372 136.485 5.70878C136.427 7.07891 136.134 8.33485 135.079 9.36245C134.787 9.64789 134.552 9.99042 134.318 10.333C134.084 10.6755 133.849 11.018 133.732 11.4176C133.439 12.331 133.088 13.1874 132.912 14.1008C132.678 15.3567 132.385 16.4985 132.033 17.6974C131.741 18.6679 131.272 19.5242 130.569 20.2093C130.1 20.666 129.808 21.1798 129.573 21.8077C129.339 22.4928 129.105 23.235 128.929 23.9771C128.812 24.3196 128.753 24.6622 128.753 25.0047C128.577 26.6032 128.46 28.2587 128.285 29.8572C128.226 30.2568 128.285 30.6565 127.992 30.999L127.874 30.8848C127.464 30.3139 127.406 29.6289 127.347 28.9438C127.172 27.3453 126.996 25.6898 127.113 24.0913C127.113 23.5775 127.113 23.1208 127.113 22.607C127.113 22.2074 126.937 21.9219 126.644 21.6936C126.527 21.5794 126.41 21.5223 126.293 21.4081C126.293 21.1227 126.351 20.7801 126.351 20.4947C126.41 19.7526 126.293 19.1246 125.824 18.4966C125.649 18.2683 125.59 17.9257 125.59 17.6403C125.59 16.8981 125.649 16.2131 125.707 15.4709C125.766 14.8429 125.531 14.3862 125.121 13.9866C125.004 13.8724 124.887 13.8153 124.77 13.7012C124.653 13.5299 124.477 13.3016 124.477 13.0732C124.536 12.3881 124.594 11.646 124.711 10.9609C124.828 10.4471 125.063 9.93333 125.238 9.36245C125.531 8.39194 125.824 7.42144 126.059 6.45093C126.176 5.93714 125.941 5.59461 125.473 5.42334C125.063 5.25208 124.711 5.30917 124.36 5.70878C123.774 6.45093 123.247 7.25017 122.778 8.04941C122.544 8.39194 122.485 8.84865 122.368 9.24827C122.192 9.93333 122.017 10.6184 121.49 11.1893C120.904 11.7602 120.611 12.4452 120.377 13.1874C120.318 13.3016 120.259 13.4157 120.201 13.587C119.849 12.6736 119.674 12.6165 118.912 12.7878C118.912 12.6736 118.854 12.5594 118.854 12.4452C118.619 11.9314 118.209 11.8743 117.858 12.274C117.682 12.4452 117.506 12.6165 117.448 12.8448C117.155 13.6441 116.862 14.4433 116.628 15.2996C116.393 16.0989 116.276 16.9552 116.042 17.8115C115.515 19.6384 115.163 21.4652 114.343 23.235C114.226 23.4633 114.226 23.6917 114.167 23.92C113.933 25.176 113.992 26.3748 114.226 27.6308C114.519 29.1151 114.519 30.5423 114.285 32.0266C114.109 32.9971 113.582 33.7392 112.937 34.4243C111.941 35.509 111.531 36.822 111.649 38.3063C111.707 38.9914 111.883 39.6764 112.176 40.3615C112.703 41.5033 112.879 42.645 112.41 43.8439C112.351 44.0152 112.293 44.2435 112.234 44.4719C112.176 44.9857 112.117 45.4995 112.41 46.0703C112.527 46.3558 112.586 46.6983 112.644 47.0408C112.644 48.3539 112.644 49.6669 112.644 50.98C112.644 51.2083 112.703 51.4367 112.762 51.665C112.879 52.0075 113.054 52.2359 113.406 52.3501C113.816 52.4643 114.05 52.1788 114.226 51.9505C114.577 51.4938 114.812 50.98 114.87 50.352C114.987 49.2673 115.339 48.2968 115.749 47.3263C115.925 46.8696 116.042 46.3558 116.042 45.8991C116.1 44.9286 115.866 44.0152 115.69 43.1017C115.632 42.8734 115.632 42.645 115.632 42.4167C115.808 41.332 116.276 40.3044 117.096 39.5623C117.799 38.9343 118.092 38.2492 117.975 37.3358C117.975 37.1075 117.975 36.8791 117.916 36.7078C117.799 36.0799 117.858 35.4519 118.033 34.8239C118.209 33.9676 118.444 33.0542 118.561 32.1978C118.678 30.7135 118.971 29.2863 119.322 27.8591C119.556 26.8886 119.556 25.861 119.205 24.8905C118.854 23.92 118.854 22.9495 119.205 21.979C119.381 21.5223 119.498 21.0085 119.615 20.4947C119.791 19.9809 119.908 19.41 120.435 18.8391C120.494 19.1246 120.552 19.3529 120.552 19.5242C120.494 20.1522 120.494 20.7801 120.377 21.4652C120.318 22.2644 120.494 23.0066 121.255 23.4633C121.607 23.6917 121.782 23.9771 121.841 24.3767C121.9 24.7763 122.075 25.1189 122.427 25.2901C123.247 25.6327 123.364 26.3177 123.423 27.0028V27.1741C123.598 28.43 123.833 29.6859 124.477 30.8848C124.77 31.3415 124.77 31.9695 124.887 32.4833C124.946 32.8258 124.946 33.2254 125.063 33.568C125.356 34.1959 125.297 34.881 125.238 35.509C125.121 36.9362 125.473 37.7354 126.761 38.0209C127.054 38.078 127.23 38.2492 127.289 38.5918C127.347 38.9343 127.347 39.2197 127.406 39.5623C127.523 40.4186 127.64 41.2178 128.167 41.9029C128.46 42.3025 128.87 42.5309 129.397 42.4167C129.866 42.3025 130.218 41.8458 130.276 41.332C130.335 40.8182 130.393 40.3615 130.335 39.8477C130.276 38.5347 130.686 37.3358 131.331 36.194C131.506 35.8515 131.682 35.509 131.741 35.1094C131.858 34.4243 131.858 33.7392 131.916 33.0542C131.975 31.7982 132.209 30.6565 133.205 29.8001L133.322 29.6289C134.259 28.43 134.728 27.0599 134.435 25.5185C134.201 24.3196 134.377 23.1779 134.728 22.0361C134.787 21.8077 134.904 21.5794 134.962 21.351C135.079 21.6365 135.079 21.8648 135.079 22.0932C135.079 22.8353 135.314 23.4633 135.958 23.8629C136.134 23.9771 136.251 24.1484 136.368 24.2625C136.661 24.6051 136.837 25.0047 136.72 25.5185C136.603 25.9752 136.485 26.4319 136.31 26.8886C136.017 27.7449 135.607 28.6013 135.49 29.5147C135.314 30.7706 135.372 32.0837 135.9 33.3396C136.017 33.568 136.134 33.8534 136.134 34.1389C136.192 34.7668 136.192 35.3948 136.134 36.0228C136.017 38.135 136.603 39.9619 137.95 41.5604C138.301 41.96 138.36 42.4167 138.184 42.9305C138.008 43.6726 137.891 44.4148 137.833 45.1569C137.774 45.9562 138.126 46.5841 138.946 46.8696L139.063 46.9838C139.063 47.3834 139.063 47.8401 139.063 48.2397C139.063 48.8106 139.238 49.3244 139.707 49.6669C140.059 49.9524 140.41 50.2378 140.82 50.4662C141.23 50.6945 141.347 50.98 141.289 51.4367C141.23 51.8363 141.23 52.2359 141.172 52.6355C141.172 52.9781 141.23 53.2635 141.582 53.4348C141.874 53.606 142.109 53.4348 142.343 53.2635H142.46L142.519 53.3777C142.929 53.7773 143.163 53.8344 143.515 53.606C143.866 53.4348 143.925 53.1493 143.808 52.6355C143.632 52.2359 143.515 51.8934 143.573 51.6079Z"
            fill="#11B0C8" />
        <path
            d="M38.6025 54.1198C38.4854 53.3206 38.1339 52.6355 37.5481 52.0075C36.8452 51.2654 36.4352 50.4662 36.3766 49.4386C36.318 48.2968 35.6151 47.4976 34.5021 47.0979C34.1507 46.9838 33.9163 46.7554 33.7406 46.47C33.5649 46.0703 33.3306 45.7278 33.1548 45.3282C32.9205 44.8144 32.5691 44.4719 32.0419 44.4148C31.4561 44.3006 31.2218 43.9581 31.046 43.4443C30.9875 43.273 30.9289 43.0447 30.9289 42.8734C30.7532 41.6174 30.0502 40.7611 28.9373 40.1331C28.5858 39.9619 28.4101 39.6764 28.2343 39.3339C27.8829 38.6488 27.59 37.9067 27.1214 37.3358C26.4184 36.4795 25.5398 35.8515 24.3096 36.3653L24.1339 36.3082C23.9582 36.0228 23.841 35.6802 23.6653 35.3377C23.1967 34.5956 22.9038 34.5385 22.1423 34.9381H22.0251C21.9665 34.8239 21.908 34.6526 21.7908 34.4814C21.4979 33.9676 21.2636 33.4538 20.9707 32.94C20.6778 32.4833 20.385 32.0837 19.7406 32.1408C19.5649 32.1408 19.3891 32.0266 19.0963 31.8553C19.3891 31.627 19.5649 31.5128 19.7992 31.3986C20.385 31.1132 20.8536 30.7135 21.0879 30.0856C21.205 29.8001 21.3808 29.6289 21.6151 29.5718C21.908 29.4576 22.2594 29.4005 22.5523 29.3434C23.431 29.2863 24.0168 28.7725 24.4268 28.0875C24.8954 27.4024 25.1883 26.6603 25.3055 25.8039C25.364 25.4043 25.4226 25.0047 25.8912 24.7192C26.1255 24.6051 26.2427 24.2625 26.3013 24.0342C26.4184 23.6917 26.4184 23.3491 26.4184 23.0066C26.4184 22.4357 26.5356 21.9219 27.0042 21.4652C27.8243 20.666 28 19.6955 27.8243 18.6108C27.6486 17.7545 27.59 16.8981 27.8829 16.0418C28.2929 15.0142 28 14.1008 27.1214 13.4157C26.8285 13.1874 26.7699 12.959 26.7699 12.6165C26.7699 12.4452 26.8285 12.2169 26.8285 12.0456C26.887 11.3605 26.8871 10.7326 26.8871 10.0475C26.8871 9.87624 26.8285 9.64789 26.7113 9.53371C25.9498 8.50612 25.3055 8.22068 24.1925 8.56321C23.9582 8.6203 23.7239 8.73447 23.4896 8.73447C23.0795 8.79156 22.9624 8.67738 22.9038 8.27776C22.9038 7.99232 22.8452 7.70688 22.7866 7.42144C22.6695 6.85055 22.318 6.56511 21.7322 6.56511C21.4979 6.56511 21.2636 6.56511 21.0879 6.6222C20.4435 6.73638 19.8578 6.6222 19.3306 6.22258C18.9791 5.88005 18.5105 5.70878 18.0419 5.48043C17.2804 5.08081 16.4603 4.73828 15.6988 4.33866C15.2301 4.1103 14.7029 3.93904 14.1758 3.93904C13.9414 3.93904 13.6486 3.93904 13.4142 3.93904C12.5356 3.76777 11.8912 4.1103 11.2469 4.56701C10.544 5.1379 9.78245 5.65169 9.02094 6.16549C8.02512 6.85055 6.91215 7.19308 5.7406 6.79346L5.50629 6.73638C5.03768 6.56511 4.56906 6.73638 4.10044 6.90764C3.51466 7.25017 2.92889 7.76397 2.40169 8.33485C2.10881 8.67738 1.75734 8.79156 1.28872 8.6203C0.87868 8.44903 0.64437 8.50612 0.410061 8.84865C1.89358e-05 9.5908 -0.351446 10.8467 0.64437 11.7602C0.820103 11.9314 0.937257 12.0456 1.11299 12.2169C1.81592 12.7878 1.8745 13.4728 1.64019 14.2721C1.52303 14.6146 1.40588 14.9571 1.3473 15.2996C1.05441 16.7839 1.17157 18.097 2.46027 19.1817C2.75316 19.41 2.92889 19.6955 3.1632 19.9238C3.57324 20.3805 3.80755 20.9514 3.63182 21.5794C3.51466 22.0932 3.45609 22.607 3.33893 23.0637C3.22178 23.4633 3.22178 23.8629 3.45609 24.2055C3.57324 24.3196 3.63182 24.548 3.57324 24.6622C3.51466 25.0618 3.63182 25.4043 3.80755 25.8039C4.10044 26.2036 4.10044 26.6032 3.98328 27.0028C3.80755 27.6878 3.86613 28.3729 4.33475 28.9438C4.56906 29.1722 4.74479 29.4576 4.9791 29.6859C5.27199 30.0856 5.44772 30.4281 5.27199 30.9419C5.09625 31.5128 5.21341 32.0266 5.44772 32.5404C5.97491 33.6821 6.32638 34.881 6.32638 36.1369C6.32638 36.822 6.38496 37.6212 5.97491 38.2492C5.62345 38.8201 5.79918 39.391 6.20922 39.7906C6.73642 40.3615 6.97073 41.0466 7.26362 41.7887C7.38077 42.1312 7.38077 42.4167 7.14646 42.7021C6.56069 43.6155 6.56069 44.529 6.795 45.5565C6.97073 46.2416 7.26362 46.8696 7.67366 47.4976C7.96655 47.8972 8.14228 48.3539 8.25943 48.8677C8.31801 49.2673 8.49374 49.6098 8.84521 49.8953C8.96236 50.0094 9.07952 50.1236 9.07952 50.2378C9.13809 50.9229 9.31383 51.6079 9.13809 52.3501C8.90378 53.0922 9.07952 53.4918 9.78245 53.8344C10.2511 54.1198 10.4268 54.4623 10.4268 54.9191C10.4268 55.2616 10.4268 55.6612 10.4268 56.0037C10.4854 56.6317 10.6611 57.2026 11.1883 57.6593C11.4226 57.8306 11.6569 58.0589 12.0084 57.8877C12.3599 57.7735 12.477 57.431 12.477 57.0884C12.477 56.6888 12.477 56.2892 12.4184 55.8896C12.3599 55.2045 12.4184 54.5194 13.1214 54.1198L13.2385 54.0056C14 53.2635 14.1172 52.4643 13.5314 51.4937C13.1214 50.8087 12.9456 50.0665 13.2971 49.2673C13.4142 48.9819 13.5314 48.6393 13.59 48.2968C13.59 47.9543 13.59 47.6117 13.4142 47.3263C13.1214 46.7554 12.7699 46.2416 12.4184 45.7278C11.8912 44.9286 11.5398 44.0722 12.1255 43.1588L12.1841 42.9876C12.7699 42.0171 12.7699 40.9895 12.1841 40.019C12.0084 39.7335 11.9498 39.4481 12.1841 39.1055C12.5942 38.5347 12.5356 37.9638 12.1841 37.3929C12.0084 37.0504 11.8327 36.7078 11.7155 36.3653C11.4812 35.6802 11.7155 35.2806 12.5356 34.9381C12.887 35.2806 13.2385 35.6802 13.59 36.0799C14.1758 36.6507 14.8787 36.8791 15.6402 36.6507C16.226 36.4795 16.5774 36.7078 16.8703 37.1645C17.1632 37.6212 17.4561 38.078 17.749 38.5347C17.9833 38.8772 18.2762 39.2197 18.5691 39.5052C18.9205 39.7906 19.1548 39.7906 19.5063 39.4481C20.0921 38.8772 20.2678 38.8772 20.8536 39.4481C21.1465 39.7906 21.4979 40.019 22.0251 39.9619C22.3766 39.9048 22.6109 40.076 22.7866 40.3615C23.0795 41.0466 23.431 41.6745 23.7239 42.3596C24.0753 43.2159 24.6611 43.4443 25.4812 43.1017C25.5983 43.0447 25.7155 42.9876 25.8327 42.9305C26.3013 42.7592 26.3599 42.7592 26.6527 43.1588C27.0042 43.7297 27.2971 44.3006 27.59 44.8715C27.9414 45.6707 28.5858 46.1274 29.4059 46.2987C29.9331 46.4129 30.1674 46.6412 30.4017 47.0408C30.5189 47.2692 30.636 47.4405 30.7532 47.6688C31.2218 48.6393 31.8076 49.5527 32.9791 49.8953L33.2134 50.0094C33.7992 50.4091 34.3264 50.8087 34.385 51.5508C34.4435 52.293 34.7364 52.9781 35.0293 53.7202C35.205 54.1769 35.4979 54.5765 35.9665 54.8049C36.3766 55.0332 36.6109 55.3187 36.7866 55.7183C36.9038 56.1179 37.0795 56.4604 37.3138 56.8601C37.5481 57.3739 38.0168 57.6593 38.3682 57.6022C38.7197 57.488 38.8954 57.1455 38.8954 56.5175C38.8954 56.2321 38.7197 55.9467 38.8368 55.7183C38.8368 55.2616 38.6611 54.6907 38.6025 54.1198ZM18.5691 26.8315C18.4519 26.8886 18.2762 26.9457 18.1004 27.0028C17.749 27.0599 17.3975 27.117 17.046 27.2311C16.636 27.3453 16.2845 27.5166 15.8745 27.7449C15.5816 27.9162 15.3473 28.0875 15.113 28.3158C14.8201 28.6584 14.4686 28.8867 14 29.058C13.8243 28.9438 13.7071 28.7725 13.5314 28.6584C12.7699 28.1446 12.3013 28.0875 11.6569 28.5442C11.4812 28.6584 11.3055 28.7725 10.954 28.9438C11.0126 28.5442 11.0126 28.2587 11.1297 28.0304C11.1883 27.802 11.3055 27.5737 11.4226 27.4024C11.6569 26.7173 11.5983 26.4319 10.954 26.0323C10.7197 25.861 10.6025 25.6898 10.6025 25.4043C10.6025 24.9476 10.6025 24.548 10.6025 24.0913C10.6025 23.4633 10.3682 23.0066 9.72387 22.7212C9.31383 22.5499 9.25525 22.3786 9.3724 21.979C9.43098 21.6936 9.48956 21.4081 9.54814 21.1798C9.66529 20.2663 9.19667 19.6384 8.49374 19.0675C8.37659 18.9533 8.25943 18.782 8.25943 18.6679C8.25943 18.0399 8.02512 17.3548 8.31801 16.7269C8.49374 16.3272 8.20086 15.9847 7.90797 15.6993C7.43935 15.2996 7.38077 14.7859 7.49793 14.215C7.61508 13.7583 7.79081 13.587 8.25943 13.7012C8.37659 13.7012 8.55232 13.7012 8.66948 13.7583C9.72387 14.1008 10.6025 13.7012 11.364 12.959C11.4812 12.8448 11.5983 12.7307 11.7155 12.6165C12.1255 12.2169 12.6527 12.0456 13.2385 12.1027C13.59 12.1598 14 12.2169 14.3515 12.274C14.8201 12.274 15.2887 12.274 15.8745 12.274C16.9289 14.1579 17.3975 14.3291 18.9791 13.7583C19.3891 14.1579 19.7992 14.5004 19.5063 15.1855C19.3891 15.4709 19.5063 15.8134 19.7406 16.0989C20.0335 16.4414 20.385 16.841 20.6778 17.1265C20.9122 17.3548 21.205 17.5261 21.4394 17.7545C21.2636 18.0399 21.205 18.1541 21.0879 18.3253C20.6778 18.8962 20.6193 19.2388 21.0293 19.7525C21.6151 20.3805 21.3222 21.0656 21.2636 21.7506L21.205 21.9219C20.795 22.3786 20.385 22.8353 19.9749 23.292C19.5649 23.7487 19.4477 24.3196 19.3306 24.8905C19.272 25.233 19.272 25.5756 19.2134 25.9181C19.1548 26.2036 18.9791 26.6032 18.5691 26.8315Z"
            fill="#11B0C8" />
        <path
            d="M209.59 26.432C209.297 26.2607 209.004 26.3749 208.711 26.489C207.95 26.7745 207.188 27.117 206.485 27.4595C206.017 27.6879 205.548 27.9163 205.197 28.3159C204.084 29.4576 202.502 29.8573 201.331 30.8849L201.213 30.9419C200.159 31.3416 199.105 31.8554 198.05 32.1408C197.113 32.4262 196.117 32.5975 195.473 33.5109C195.473 33.2826 195.473 33.1113 195.531 32.94C195.707 32.4262 195.649 31.9695 195.356 31.5128C195.121 31.1703 194.887 30.8849 194.711 30.5423C194.594 30.3711 194.477 30.1998 194.477 30.0285C194.477 29.6289 194.301 29.2864 194.067 29.0009C193.891 28.7726 193.774 28.4871 193.774 28.2588C193.715 26.9458 193.715 25.6327 193.715 24.2626C193.715 23.5775 193.423 23.0637 192.778 22.7212C192.603 22.607 192.427 22.4358 192.368 22.2645C192.017 20.9515 191.197 19.8097 191.138 18.4396C191.138 18.2683 191.08 18.1541 191.021 17.9829C190.611 16.8982 190.201 15.7564 189.674 14.6717C189.498 14.215 189.205 13.8154 188.912 13.4158C188.795 13.2445 188.502 13.0733 188.385 13.1303C188.209 13.1874 187.975 13.4158 187.975 13.6441C187.916 13.9867 187.975 14.3863 187.975 14.7288C188.033 15.8135 188.033 16.9553 188.092 18.097C187.389 18.2683 187.213 18.725 187.272 19.2959C187.331 20.038 187.389 20.7802 187.506 21.5223C187.565 21.922 187.682 22.3787 187.682 22.7783C187.682 23.6346 187.682 24.4339 187.682 25.2902C187.682 26.2036 187.799 27.117 188.209 27.9733C188.561 28.6584 188.795 29.4006 188.795 30.1998C188.795 30.5994 188.854 30.999 188.795 31.3987C188.795 31.7983 188.912 32.1408 189.264 32.3692C189.498 32.5404 189.732 32.6546 190.084 32.883C189.791 33.9105 189.556 34.9381 189.205 35.9657C188.912 36.9362 188.502 37.9067 188.736 38.9343C188.854 39.4481 188.678 39.6194 188.151 39.7907C187.858 39.9048 187.506 39.9619 187.213 40.0761C186.393 40.3615 185.632 40.647 184.87 41.0466C184.226 41.3891 184.167 41.7888 184.636 42.3596L184.753 42.4738L184.695 42.588C184.519 42.7022 184.402 42.7593 184.226 42.8164C183.23 43.3301 182.41 44.0152 181.707 44.8715C181.239 45.4424 181.238 45.785 181.59 46.4129C182.059 47.098 182.059 47.3263 181.414 47.8401C180.711 48.4681 179.95 49.0961 179.188 49.7241C178.837 50.0095 178.544 50.2949 178.427 50.7517C178.368 50.8658 178.251 51.0371 178.134 51.0942C177.314 51.3796 176.845 51.9505 176.435 52.6356C176.084 53.2635 175.615 53.7773 174.971 54.0628C174.619 54.234 174.268 54.3482 173.916 54.5195C172.393 55.3758 171.105 56.5176 169.874 57.7164C169.582 58.0019 169.406 58.4015 169.23 58.744C169.054 59.1437 168.996 59.5433 169.347 59.8287C169.699 60.1142 170.109 60.1142 170.577 59.8287L170.87 59.6575C171.749 58.9153 172.628 58.1732 173.565 57.4881C173.916 57.2026 174.268 56.9743 174.678 56.8601C175.439 56.6318 176.259 56.4034 177.079 56.2321C177.958 56.0609 178.72 55.6613 179.364 55.0333C180.184 54.177 181.121 53.3206 182 52.5214C182.117 52.4072 182.293 52.236 182.469 52.1789C183.054 51.8363 183.464 51.3796 183.699 50.8087C184.109 49.7811 184.812 48.9248 185.573 48.0685C185.925 47.6689 186.276 47.3263 186.569 46.9267C186.745 46.6984 186.92 46.4129 187.038 46.0704C187.272 45.157 187.799 44.4719 188.619 43.9581C189.732 43.216 190.845 42.4738 191.958 41.7888C192.427 41.4462 192.778 41.0466 193.071 40.5328C193.247 40.1903 193.423 39.9048 193.715 39.6194C194.418 38.8202 195.239 38.3064 196.293 38.0209C197.933 37.5642 199.105 36.4795 199.866 34.9952C200.042 34.5956 200.335 34.3673 200.686 34.1389C200.921 33.9676 201.213 33.8535 201.448 33.7964C202.209 33.5109 202.854 33.0542 203.498 32.5404C203.849 32.255 204.259 31.9125 204.669 31.6841C205.958 30.999 207.071 30.1998 208.126 29.2293C208.711 28.6584 209.297 28.0875 209.883 27.4595C210.176 27.0028 210.059 26.6603 209.59 26.432Z"
            fill="#11B0C8" />
        <path
            d="M102.452 37.9638C102.1 37.1075 101.749 36.2511 101.808 35.2806C101.866 34.5956 101.808 33.9676 101.808 33.2825C101.808 32.7687 101.866 32.1979 101.983 31.6841C102.218 30.7706 102.51 29.8572 102.745 28.9438C102.862 28.5442 102.862 28.1446 102.569 27.802C102.159 27.3453 102.1 26.7744 102.276 26.2036C102.452 25.5185 102.686 24.8334 102.862 24.1484C102.92 23.92 102.979 23.6346 102.979 23.4062C102.979 23.0066 102.803 22.607 102.335 22.4357C101.866 22.2645 101.456 22.4357 101.163 22.7783C100.929 23.0066 100.695 23.292 100.577 23.5775C100.343 24.0913 100.226 24.6051 100.109 25.176C99.8159 26.2036 99.5816 27.2882 99.3473 28.3729L99.2887 28.6013C98.7615 29.4005 98.5858 30.2568 98.4686 31.1703C98.41 31.627 98.1757 31.9695 97.7071 32.1979C97.0627 32.5975 96.477 33.0542 95.8912 33.568C95.364 34.0818 94.954 34.6527 94.4853 35.2235C94.4853 34.8239 94.4853 34.4814 94.5439 34.0818C94.7782 32.8258 95.0711 31.5699 95.3054 30.3139C95.4226 29.686 95.5397 29.058 95.6569 28.43C95.7155 28.0875 95.7155 27.7449 95.5983 27.4024C95.4812 27.0028 95.2468 26.6603 94.7196 26.6032C94.251 26.5461 93.9581 26.8315 93.7238 27.1741C93.6653 27.2882 93.6067 27.4595 93.5481 27.5737C92.9623 28.9438 92.3766 30.371 91.7908 31.8553C91.615 30.9419 91.205 30.2568 90.1506 30.5423C89.7991 29.9714 89.682 29.3434 89.5648 28.7155C89.4477 28.2587 89.2134 27.8591 88.8619 27.5166C88.569 27.2312 88.2761 27.2312 87.9247 27.3453C87.5732 27.4595 87.3975 27.6879 87.3975 28.0875C87.3975 28.43 87.3389 28.7155 87.3389 29.058C87.2803 29.5718 87.2217 30.1427 87.2217 30.6565C87.2217 31.2273 87.2803 31.7982 87.3389 32.312C87.4561 33.1113 86.9289 33.6821 86.4602 34.3101C86.2259 33.8534 86.0502 33.5109 85.8745 33.1684C85.7573 32.94 85.8159 32.5975 85.7573 32.3691C85.6402 31.9695 85.523 31.5699 85.4058 31.1132C85.2887 30.6565 85.2301 30.1427 85.113 29.686C85.0544 29.4576 85.113 29.2292 85.0544 29.0009C84.8201 27.9162 84.5272 26.7744 84.5272 25.6327C84.5272 25.2901 84.4686 24.8905 84.3515 24.548C84.2343 24.1484 83.9414 23.9771 83.6485 24.0342C83.2385 24.1484 82.887 24.2625 82.6527 24.6051C82.4184 24.9476 82.2427 25.3472 82.0669 25.7469C81.8912 26.1465 81.8326 26.6032 81.7155 27.0599C81.6569 27.3453 81.4812 27.5737 81.1297 27.5166C80.4853 27.5166 80.1925 27.8591 79.9581 28.3729C79.7824 28.7155 79.6653 29.1151 79.4895 29.4576C79.0209 30.371 78.9038 31.2844 79.2552 32.2549C79.3724 32.5975 79.4309 32.94 79.3138 33.2825C78.9037 34.4243 78.6694 35.6802 77.9665 36.7649C77.8494 36.9933 77.6736 37.2216 77.6736 37.45C77.6151 37.8496 77.5565 38.3634 77.7322 38.7059C78.0837 39.2768 78.1422 39.7906 78.1422 40.4186C78.1422 40.5328 78.1422 40.704 78.2008 40.8182C78.318 41.2178 78.6109 41.5033 78.9623 41.5033C79.3724 41.5033 79.6067 41.332 79.7238 40.8182C79.841 40.4757 79.9581 40.1332 80.251 39.8477C80.6025 39.5052 80.6611 39.1056 80.4853 38.7059C80.3682 38.3634 80.4268 38.1351 80.6611 37.8496C80.7782 37.6783 80.954 37.5071 81.0711 37.2787C81.1883 37.0504 81.3054 36.822 81.3054 36.6508C81.3054 35.9086 81.7155 35.3948 82.1255 34.881C82.3012 34.9952 82.3598 35.1094 82.477 35.1665C83.0042 35.3377 83.1799 35.7373 83.3556 36.194C83.5899 36.822 83.7071 37.5071 84 38.1351C84.3514 38.9914 84.7615 39.8477 85.1715 40.704L85.3473 40.9324C85.5816 41.1607 85.8159 41.2178 86.1088 41.1037C86.5188 40.9895 86.7531 40.704 86.7531 40.3044C86.7531 39.4481 86.7531 38.5918 86.6945 37.7354C86.6945 37.2787 86.636 36.7649 86.636 36.2511C87.1046 36.4795 87.2803 36.7649 87.2217 37.1645C87.2217 37.3358 87.2217 37.5642 87.2217 37.7354C87.1046 38.4776 87.5732 38.8772 88.1004 39.2768C88.2761 39.4481 88.5104 39.4481 88.6862 39.2768C89.1548 38.8772 89.6234 38.4205 89.5063 37.6783C89.5063 37.5071 89.4477 37.2787 89.5063 37.1075C89.682 36.4224 89.6234 35.7373 89.3305 35.1094C89.2134 34.881 89.2134 34.7097 89.3305 34.4243C89.6234 34.7097 89.9749 34.881 90.1506 35.2235C90.6192 35.9086 91.0293 36.5937 91.4393 37.3358C91.7322 37.9067 92.0251 38.4776 92.318 39.0485C92.4937 39.3339 92.728 39.5623 93.0795 39.5623C93.4895 39.5052 93.7238 39.3339 93.841 38.9343C93.8996 38.7059 94.0167 38.4776 94.0753 38.1921L94.3096 38.2492V38.4205C94.3682 39.2768 94.8368 39.8477 95.6569 40.1332C95.9498 40.2473 96.2427 40.3615 96.477 40.4757C97.5314 41.0466 98.7615 40.8182 99.523 39.9048C99.6402 39.7335 99.7573 39.6194 99.933 39.391C99.9916 39.7335 100.05 39.9619 100.109 40.1902C100.226 40.8182 100.519 41.332 100.987 41.7316C101.397 42.1312 101.983 42.1883 102.51 41.8458C102.92 41.5604 103.155 41.1607 103.155 40.6469C103.096 39.7335 102.862 38.8772 102.452 37.9638ZM81.5397 32.2549C81.9498 31.2844 82.3012 30.3139 82.6527 29.4005L82.8284 29.4576C82.8284 29.9714 82.7699 30.4281 82.8284 30.9419C82.887 31.3986 83.1799 31.7982 83.4142 32.312H81.5397V32.2549ZM98.6443 37.1075C98.41 37.2787 98.2343 37.5071 98.0586 37.7354C97.7071 38.078 97.2385 38.0209 97.1799 37.5642C97.1213 37.1646 97.2385 36.7078 97.2971 36.2511C97.3556 35.8515 97.5314 35.509 98 35.3377C98.41 35.1665 98.7615 34.7668 99.2301 34.4243C99.4058 35.4519 99.5816 36.3653 98.6443 37.1075Z"
            fill="#11B0C8" />
        <path
            d="M71.4059 18.2111C70.9372 18.2682 70.4686 18.3253 70 18.4966C69.4728 18.7249 68.9456 18.9533 68.5356 19.2958C67.1883 20.3234 65.8996 21.351 64.6109 22.3786C64.2594 22.664 64.0251 22.9495 63.5565 22.8924C63.1464 22.8353 62.8536 23.0066 62.5021 23.2349C62.0335 23.6345 61.5649 23.9771 61.0962 24.3767C60.8619 24.5479 60.6276 24.7192 60.3933 24.8334C59.9833 25.0047 59.5147 25.1759 59.046 25.3472C58.7531 24.8334 58.6946 24.2625 58.9875 23.7487C59.1046 23.5204 59.2218 23.292 59.2803 23.0066C59.3975 22.2644 59.5732 21.5223 59.1046 20.8372C58.9875 20.6088 59.046 20.3234 58.9875 20.038C58.9289 19.6954 59.046 19.2387 58.8703 18.9533C58.636 18.4395 58.6946 18.0399 58.8703 17.5261C58.9289 17.3548 58.9875 17.1835 59.046 16.9552C59.2803 16.1559 59.3389 15.2996 59.1632 14.5004C58.9875 13.587 58.1674 13.3015 57.4059 13.8724C57.2887 13.9866 57.113 14.1008 56.9958 14.1578C56.2343 13.9866 56.0586 13.9866 55.7071 14.5004C55.5314 14.7287 55.4142 15.0142 55.4142 15.2425C55.3557 15.6421 55.4142 15.9847 55.4142 16.3843C55.4142 17.5832 55.4728 18.782 55.2971 19.9809C55.0042 21.4652 54.6527 23.0066 54.1255 24.4338C53.9498 24.8905 53.8912 25.3472 53.7741 25.8039C53.6569 26.2606 53.5983 26.6602 53.4812 27.1169C53.2469 27.802 53.0126 28.43 52.7782 29.115C52.7197 29.4005 52.7197 29.6859 52.7782 29.9143C52.8368 30.3139 53.0711 30.5993 53.4812 30.7706C53.8326 30.8848 54.1255 30.7135 54.3598 30.4281C54.6527 30.1426 54.887 29.8001 55.1799 29.4576C55.2971 29.3434 55.4142 29.2292 55.59 29.115L55.7657 29.1721C55.6485 29.5146 55.59 29.9143 55.4728 30.2568C55.4142 30.5422 55.2971 30.7706 55.2971 31.056C55.2971 32.0265 55.1213 32.997 54.5941 33.8534C54.3598 34.1959 54.2427 34.7097 54.6527 35.0522C55.0628 35.3948 55.0042 35.7944 54.9456 36.194C54.7113 37.507 54.477 38.8201 54.1841 40.1902C54.1255 40.4185 54.0669 40.6469 53.9498 40.8753C53.5983 41.6174 53.4812 42.3596 53.3054 43.1588C53.1297 44.0151 53.5398 44.5289 54.0084 45.0427C54.3013 45.3852 54.5941 45.3852 54.9456 45.0998C55.2385 44.8144 55.5314 44.4718 55.7071 44.0722C55.9414 43.273 56.2343 42.4737 56.5858 41.7316C56.7029 41.5603 56.7029 41.332 56.7615 41.1036C56.9372 40.3044 57.113 39.448 57.2887 38.6488C57.4644 37.8496 57.6402 37.1074 57.8159 36.2511C58.5188 36.5936 58.8703 36.1369 59.2218 35.6802C59.2803 35.566 59.4561 35.566 59.6318 35.4518C59.8075 35.8515 59.8661 36.194 60.0418 36.4794C60.2176 36.7649 60.5105 36.9361 60.8034 37.2216L60.9791 37.4499C61.5063 38.4204 62.1506 39.448 62.2092 40.5898C62.2678 41.332 62.6193 41.8458 63.205 42.2454C63.8494 42.7592 64.2008 43.4442 64.3766 44.1864C64.6109 45.214 65.1381 46.0703 65.7824 46.9266C66.0753 47.2692 66.1925 47.6688 66.2511 48.0684C66.3096 48.4109 66.3096 48.8106 66.4854 49.096C66.7782 49.6098 66.954 50.1236 67.0126 50.7516C67.0711 51.2083 67.4226 51.4366 67.8326 51.4366C68.3013 51.4366 68.5356 51.2654 68.6527 50.7516C68.6527 50.6945 68.6527 50.5803 68.7113 50.4661C69.3557 50.4661 69.7071 50.2949 69.7657 49.8381C69.8829 49.1531 69.9414 48.468 69.7071 47.783C69.59 47.4404 69.4728 47.155 69.3557 46.8125C68.7113 44.9285 68.067 42.9875 68.0084 40.9323C68.0084 40.4756 67.7155 39.9618 67.4226 39.5051C66.954 38.763 66.6025 38.0779 66.4854 37.2216C66.3096 36.0798 65.841 35.6802 64.6109 35.4518C64.1423 35.3948 63.7908 35.2235 63.4979 34.881C62.8536 34.0246 62.2092 33.1683 61.5649 32.2549C61.4477 32.1407 61.3891 31.9694 61.3305 31.8553C61.0962 31.5127 60.9205 31.1702 60.6862 30.8277C60.2176 30.1426 60.4519 29.3434 61.272 29.0579C61.7406 28.8867 62.2678 28.7154 62.7364 28.5441C64.1423 28.0303 65.0795 27.1169 65.4895 25.6326C65.7239 24.7763 66.1339 24.0342 67.0711 23.6916C67.2469 23.6345 67.4226 23.5204 67.5983 23.4062C68.5356 23.0066 69.1799 22.3215 69.59 21.4652C69.7657 21.1226 70 20.8943 70.2929 20.6659C70.9372 20.1521 71.4644 19.5812 72.0502 19.0104C72.2259 18.8391 72.3431 18.6107 72.1674 18.3824C71.8745 18.2682 71.6988 18.154 71.4059 18.2111Z"
            fill="#11B0C8" />
        <path
            d="M169.64 46.0132C169.874 45.7278 169.933 45.3853 169.816 45.0427C169.64 44.4718 169.464 43.958 169.23 43.4443C168.879 42.5879 168.644 41.7316 168.82 40.7611C169.054 39.2197 168.703 37.7925 167.766 36.5936C167.356 36.0798 167.238 35.566 167.297 34.9381C167.356 34.5384 167.356 34.1388 167.121 33.7392C166.594 32.8829 166.067 32.0266 165.071 31.5128C164.72 31.3415 164.778 30.9419 165.071 30.7135C165.247 30.5993 165.54 30.5423 165.715 30.4281C166.126 30.1997 166.477 30.0285 166.828 29.8001C167.238 29.4576 167.707 29.2292 168.234 29.1721C168.469 29.115 168.644 29.0009 168.82 28.9438C169.464 28.6012 169.874 28.0874 170.226 27.4595C170.46 27.1169 170.519 26.7744 170.46 26.3748C170.46 26.1464 170.402 25.861 170.343 25.6326C170.226 25.2901 170.167 24.8905 169.933 24.6621C169.523 24.2054 169.23 23.6345 168.879 23.1207C168.644 22.7782 168.586 22.5499 168.82 22.2073C169.172 21.6935 168.996 21.1797 168.527 20.7801C168 20.3234 167.414 20.0951 166.711 20.2663C166.126 20.3805 165.598 20.2663 165.071 19.9809C164.251 19.5813 163.724 19.6384 163.138 20.2663C162.552 20.9514 161.967 21.6935 161.439 22.3786C161.322 22.4928 161.264 22.607 161.146 22.7211C160.795 22.4357 160.854 22.0361 160.795 21.6935C160.678 20.8943 160.619 20.0951 160.444 19.3529C160.326 18.8962 160.033 18.6678 159.682 18.6678C159.272 18.6678 158.921 18.9533 158.803 19.41C158.745 19.5813 158.803 19.8096 158.745 19.9809C158.745 20.5518 158.745 21.0656 158.686 21.6364C158.569 22.7211 158.335 23.7487 158.335 24.8334C158.335 25.9752 158.159 27.1169 157.866 28.2587C157.808 28.6583 157.808 29.058 157.866 29.4576C157.925 29.9714 158.218 30.3139 158.686 30.5423C159.272 30.8277 159.389 31.2273 159.155 31.7982C159.038 32.1407 158.862 32.4833 158.686 32.7687C158.452 33.3396 158.393 33.9676 158.745 34.4814C159.096 35.1093 159.096 35.6802 158.92 36.3082C158.745 36.822 158.686 37.3929 158.803 37.9638C158.921 38.6488 158.921 39.3339 158.803 40.0189C158.745 40.3044 158.745 40.5898 158.745 40.8753C158.803 41.1036 158.862 41.332 159.038 41.5032C159.623 42.0741 160.502 41.9599 160.795 41.1607C160.971 40.704 161.029 40.1902 161.088 39.7335C161.088 38.9913 161.264 38.3063 161.556 37.6212C161.791 37.1074 161.849 36.5365 161.967 36.0227C162.025 35.6802 162.025 35.3377 162.025 35.1093C162.201 35.2235 162.377 35.3377 162.552 35.509C163.431 36.194 164.075 37.0503 164.603 37.9638C164.778 38.3063 165.071 38.6488 165.364 38.9343C166.008 39.5051 166.243 40.2473 166.184 41.1036C166.184 41.5032 166.184 41.9599 166.301 42.3025C166.594 42.9875 166.77 43.7297 166.887 44.4718C167.004 45.1569 167.297 45.7849 167.824 46.2987C168.469 46.6983 169.23 46.6412 169.64 46.0132ZM164.544 27.4024C164.368 27.6878 164.075 27.9733 163.841 28.2587C163.665 28.1445 163.548 28.0874 163.49 28.0304C163.255 27.6307 162.904 27.2311 162.552 26.8886C162.435 26.7744 162.377 26.489 162.318 26.2606C163.021 26.0893 163.372 25.7468 163.607 25.1759C164.017 24.2054 164.192 24.1483 165.54 24.2625C164.603 24.8905 164.603 25.6326 164.778 26.489C164.837 26.7744 164.72 27.174 164.544 27.4024Z"
            fill="#11B0C8" />
        <path
            d="M169.874 30.6564C169.347 30.7706 169.172 31.1131 169.23 31.6269C169.347 32.1978 169.699 32.5403 170.285 32.4833C170.812 32.4262 171.222 32.5974 171.69 32.7687C172.393 32.9971 172.921 33.625 173.741 33.5679C173.682 33.7392 173.682 33.8534 173.623 33.9105C173.272 34.4814 173.155 35.1093 173.155 35.7373C173.155 36.0227 172.979 36.3653 172.803 36.5936C172.569 36.9362 172.51 37.3358 172.628 37.6783C172.686 37.9638 172.803 38.3063 172.979 38.5917C173.155 38.9343 173.155 39.1626 173.038 39.5622C172.686 40.3044 172.569 41.1036 173.038 41.9029C173.096 42.017 173.155 42.1883 173.155 42.3025C173.096 43.2159 173.155 44.1864 172.921 45.0427C172.569 46.2416 172.569 47.4404 172.569 48.6964C172.569 49.2673 172.686 49.8382 173.038 50.2949C173.389 50.7516 173.799 50.6945 174.092 50.2378C174.151 50.1236 174.209 50.0094 174.209 49.8952C174.385 49.2673 174.619 48.6964 174.795 48.0684C174.912 47.7259 175.029 47.4404 175.088 47.0979C175.264 45.6707 175.439 44.1864 175.557 42.7592C175.615 41.9599 175.791 41.2178 176.259 40.5327C176.377 40.3615 176.494 40.1902 176.494 40.0189C176.552 39.391 176.611 38.763 176.377 38.1921C176.259 37.9067 176.259 37.6783 176.435 37.3929C176.904 36.5936 176.904 35.7944 176.845 34.881C176.787 34.4814 176.787 34.0817 176.787 33.6821L176.962 33.5679C177.197 33.6821 177.49 33.7392 177.665 33.9105C178.427 34.5955 179.364 34.6526 180.243 34.5384C180.77 34.4814 181.121 34.5384 181.531 34.8239C182.059 35.2235 182.586 35.3948 183.23 35.3948C184.109 35.4519 184.46 35.1093 184.519 34.3101C184.695 34.1959 184.87 34.0817 185.046 33.9105C185.515 33.5109 185.515 33.0541 185.105 32.6545C184.87 32.4262 184.636 32.2549 184.343 32.1407C183.992 32.0265 183.582 31.9124 183.172 31.8553C182.879 31.7982 182.703 31.7411 182.469 31.5128C182.117 31.1131 181.649 30.8848 181.063 30.8848C180.653 30.8848 180.243 30.8848 179.833 30.8848C179.247 30.1426 179.13 30.0855 178.075 30.1997C177.607 30.2568 177.197 30.371 176.669 30.1426C176.787 29.8001 176.845 29.4576 176.962 29.1721C177.372 28.2587 177.665 27.3453 177.841 26.3748C178.017 25.3472 178.251 24.2625 178.778 23.292L178.837 23.1778C178.954 22.4357 178.954 21.7506 178.31 21.1797C177.782 20.723 177.782 20.6089 178.134 20.038C178.485 19.4671 178.895 18.8962 179.188 18.2682C179.364 17.9257 179.54 17.5261 179.598 17.1265C179.657 16.3272 179.13 15.8705 178.31 16.0418C177.607 16.1559 177.138 16.6127 176.845 17.2406C176.611 17.6973 176.435 18.097 176.201 18.5537C175.615 19.6954 175.029 20.8372 174.912 22.0932C174.854 22.5499 174.678 23.0066 174.502 23.4633C174.268 24.1483 174.033 24.8334 174.092 25.5756C174.092 26.0893 173.975 26.5461 173.741 27.0028C173.448 27.6307 173.331 28.2587 173.506 28.9438C173.682 29.6859 173.389 29.9714 172.628 29.9714C172.218 29.9714 171.808 30.0285 171.456 30.3139C171.163 30.5422 170.812 30.6564 170.402 30.6564C170.226 30.5422 170.05 30.5993 169.874 30.6564Z"
            fill="#11B0C8" />
        <path
            d="M50.5523 36.0227C49.7908 36.5936 49.2636 36.5936 48.4435 36.0227C48.2092 35.8515 47.9749 35.6802 47.7406 35.5089C47.3305 35.2235 46.8619 35.1664 46.4519 35.5089C46.2176 35.7373 45.9247 35.6802 45.6318 35.566C45.1632 35.3377 44.7531 35.3948 44.3431 35.6802C44.0502 35.8515 43.7573 36.0798 43.4059 36.3082C42.9372 36.5365 42.5272 36.3082 42.5272 35.8515C42.5272 35.6802 42.5858 35.5089 42.6444 35.3377C42.7615 35.0522 42.9372 34.7097 43.113 34.4243C43.3473 34.0817 43.5816 33.6821 43.7573 33.3396C44.1674 32.4262 43.9916 32.0265 43.2301 31.5127C43.113 31.4557 43.0544 31.3986 42.8787 31.2844C42.9958 30.4281 43.523 29.9713 44.1088 29.5146C44.8703 28.8867 45.6904 28.2587 46.3933 27.5736C46.8033 27.174 47.0962 26.7173 46.8033 26.1464C47.2134 25.9181 47.6234 25.8039 48.092 25.8039C48.4435 25.8039 48.8536 25.8039 49.205 25.8039C50.1423 25.7468 50.9623 25.4614 51.5481 24.7192C51.7824 24.3767 51.8996 24.0341 51.7238 23.6345C51.5481 23.292 51.1966 23.1207 50.7866 23.1207C50.0837 23.1778 49.3222 23.1778 48.6192 23.2349C48.2678 23.292 48.0335 23.292 47.7992 23.0066C47.5648 22.7211 47.2134 22.6069 46.8033 22.6069C45.8075 22.664 44.9289 23.0066 44.1674 23.6345C43.9331 23.8058 43.6987 24.1483 43.6402 24.4338C43.523 25.1188 43.1715 25.4614 42.4686 25.5755L42.1757 25.6897C40.887 26.0322 40.4184 26.6031 40.2427 27.8591C40.1841 28.43 40.0669 29.0008 39.8326 29.4576C39.4812 30.1426 39.2469 30.7706 39.2469 31.5127C39.2469 32.0265 39.0125 32.4262 38.6611 32.7687C38.4268 32.997 38.1339 33.2825 38.0167 33.5679C37.7824 33.9675 37.6067 34.3672 37.5481 34.8239C37.431 35.3377 37.841 35.7373 38.3682 35.7373C38.4854 35.7373 38.5439 35.7373 38.7197 35.7373C38.6025 35.9656 38.4268 36.1369 38.3682 36.3653C38.251 36.7649 38.0753 37.1074 38.0753 37.507C38.0167 38.135 38.3096 38.4204 38.954 38.4775C39.2469 38.4775 39.5397 38.4775 39.8912 38.4775C40.5356 38.4775 40.7113 38.7059 40.5941 39.3339C40.477 39.9047 40.5941 40.3615 41.0628 40.704C41.5314 40.9894 41.59 41.389 41.59 41.8458C41.59 42.1312 41.6485 42.4737 41.7071 42.7592C41.7657 42.9875 41.8828 43.2159 42.0586 43.3301C42.3515 43.6155 42.7029 43.6726 42.9958 43.3871C43.2301 43.1588 43.4644 42.8733 43.6402 42.5879C43.8745 42.1312 44.0502 41.6174 44.2845 41.2178C44.4602 40.8752 44.6946 40.5327 44.9874 40.1902C45.2218 39.9047 45.5146 39.7906 45.9247 39.9618C46.159 40.076 46.5105 40.0189 46.8033 39.9047C47.0962 39.7906 47.4477 39.5622 47.682 39.3339C48.1506 38.9342 48.6192 38.8201 49.205 38.9342C50.5523 39.1626 51.7824 38.3063 52.0167 36.9361C52.0753 36.6507 52.0167 36.3082 51.841 36.0798C51.6653 35.566 51.1967 35.566 50.5523 36.0227Z"
            fill="#11B0C8" />
        <path
            d="M155.582 32.4833C155.113 31.9125 154.996 31.3987 155.289 30.7136C155.523 30.314 155.699 29.8573 155.816 29.4006C156.109 28.3159 156.109 27.2312 155.523 26.1465C155.406 25.9182 155.347 25.6898 155.347 25.4044C155.289 24.8906 155.113 24.4339 154.703 24.0343C154 23.3492 153.238 22.7783 152.243 22.4358C150.895 21.9791 149.724 22.1503 148.669 23.0637C148.025 23.6346 147.498 24.3768 146.912 25.0618C146.736 25.2902 146.561 25.4615 146.326 25.6327C145.331 26.2607 144.51 27.0599 144.335 28.2588C144.218 28.9439 143.983 29.5718 143.456 30.1427C142.812 30.8849 142.753 31.9696 143.339 32.6546C144.042 33.568 144.218 34.5385 144.042 35.6232C143.983 36.0228 143.983 36.4795 143.925 36.9933C143.983 37.393 143.983 37.8497 144.159 38.3064C144.335 38.8202 144.745 39.1056 145.213 38.9914C145.741 38.8773 146.151 39.1056 146.561 39.334C146.912 39.5623 147.205 39.7336 147.615 39.8478C147.849 39.9619 147.967 40.019 148.084 40.2474C148.435 40.9324 148.845 41.1608 149.665 40.9895C150.251 40.8754 150.837 40.647 151.481 40.7612C151.598 40.7612 151.774 40.7612 151.95 40.647C152.594 40.3045 153.297 39.9619 153.824 39.5052C154.703 38.5918 155.582 37.6213 156.285 36.5937C156.753 35.9657 157.046 35.2807 156.87 34.4244C156.577 33.7964 156.109 33.1113 155.582 32.4833ZM150.778 34.7098C151.13 35.3378 151.071 35.3949 151.013 36.0228C150.603 36.0799 150.192 36.0799 149.782 36.137C149.49 35.6803 149.197 35.2236 148.904 34.824C148.669 34.4814 148.377 34.196 147.908 34.196C147.556 34.196 147.439 34.0247 147.381 33.7393C147.322 33.4539 147.264 33.1684 147.205 32.883C147.029 32.0837 147.205 31.3416 147.849 30.7707C148.494 30.1998 148.728 29.6289 148.611 28.7726C148.494 28.1446 148.962 27.745 149.548 27.4596C149.431 27.8592 149.314 28.2588 149.255 28.7155C149.079 29.5718 149.431 30.1998 150.134 30.6565C150.31 30.7707 150.485 30.8278 150.661 30.942C151.071 31.2274 151.188 31.4558 151.013 31.9125C150.954 32.1408 150.837 32.3692 150.72 32.5404C150.427 33.2255 150.427 33.9676 150.778 34.7098Z"
            fill="#11B0C8" />
        <path
            d="M34.9122 28.9439C34.9122 28.1446 35.0293 27.3454 35.3222 26.6032C35.5565 26.0323 35.6737 25.4615 35.3808 24.8906C35.0879 24.2626 35.0293 23.6917 35.1465 23.0067V22.8354C35.0879 22.3216 34.8536 22.0932 34.385 22.0362C33.9163 21.9791 33.5063 22.0932 33.1548 22.3216C33.0377 22.4358 32.8619 22.4929 32.6862 22.4929C31.8661 22.4358 31.5732 22.6641 31.6904 23.4063C31.8076 24.2055 31.6904 25.0048 31.3975 25.7469C31.3389 25.8611 31.3389 25.9753 31.3389 26.1465C31.2218 26.6032 31.2804 27.0029 31.8076 27.2312C32.1004 27.3454 32.2176 27.6308 32.159 27.9163C32.1004 28.2017 31.9833 28.4301 31.8661 28.7155C31.6904 29.1722 31.4561 29.5718 31.3389 30.0285C31.1046 30.7707 31.1632 31.4558 31.8661 31.9125C32.1004 32.0837 32.2762 32.3692 32.2762 32.7117C32.2762 33.3397 32.2176 33.9677 32.159 34.6527C32.1004 35.1094 32.0419 35.509 32.2176 35.9087C32.3933 36.2512 32.4519 36.6508 32.3348 37.0504C32.2176 37.5071 32.3347 37.9638 32.5691 38.3064C32.8034 38.6489 32.9205 39.0485 32.8619 39.4481C32.8619 39.8478 32.8619 40.2474 32.8619 40.5899C32.8619 41.0466 32.8619 41.5033 32.8619 41.96C32.8619 42.5309 33.0377 43.0447 33.3891 43.4443C33.8578 43.901 34.385 43.844 34.7364 43.3302C34.8536 43.1589 34.9122 43.0447 34.9122 42.8735C34.9707 42.3597 35.0879 41.8459 35.0293 41.3321C34.9122 40.1332 35.0879 38.9344 35.6737 37.8497C35.7908 37.6784 35.7908 37.45 35.908 37.2217C36.2594 36.3654 36.1423 35.5661 35.7322 34.824L35.6737 34.7098C35.4394 34.3102 35.4394 33.9106 35.7322 33.5109C35.9665 33.1684 36.0837 32.8259 36.318 32.4833C36.8452 31.7412 36.7281 30.8278 35.7908 30.2569C35.0293 29.9144 34.9122 29.5147 34.9122 28.9439Z"
            fill="#11B0C8" />
        <path
            d="M32.3347 19.7526C32.8619 20.1522 33.4477 20.3234 34.092 20.0951C34.7364 19.8667 35.0293 19.3529 35.0879 18.725C35.1464 17.8686 35.2636 17.0123 35.4979 16.156C35.7322 15.2426 35.1464 14.6717 34.092 14.7859C34.1506 14.5004 34.2092 14.215 34.2092 13.9866C34.3264 13.2445 33.7406 12.5594 33.0962 12.6165C32.569 12.6736 32.1004 12.8448 31.749 13.2445C31.3389 13.7012 31.2218 14.3291 31.5146 14.8429C31.8075 15.2997 31.7489 15.6422 31.5146 16.0418C31.2803 16.4414 31.046 16.8981 30.9289 17.3548C30.7531 17.9828 30.8117 18.5537 31.3389 19.0104C31.6904 19.1817 32.0418 19.4671 32.3347 19.7526Z"
            fill="#11B0C8" />
        <path d="M182.176 53.7773V53.8915H181.824V54.8049H181.649V53.8915H181.297V53.7773"
            fill="#11B0C8" />
        <path
            d="M182.234 53.7773H182.469L182.762 54.6337L183.113 53.7773H183.289V54.8049H183.172V54.177V54.0628V53.8915L182.82 54.8049H182.703L182.41 53.8915V53.9486V54.0628V54.8049H182.234"
            fill="#11B0C8" />
    </g>
    <defs>
        <clipPath id="clip0_15_396">
            <rect width="210" height="60" fill="white" />
        </clipPath>
    </defs>
</svg>